<svg width="60" height="58" viewBox="0 0 60 58" fill="none" xmlns="http://www.w3.org/2000/svg">
<path d="M58.9952 1.45279C57.1765 -1.459 50.255 0.906226 50.255 0.906226L41.3358 3.45525C41.3358 3.45525 36.2378 4.91115 36.3248 8.09864C36.4167 11.2861 40.6055 14.5655 40.6055 14.5655L36.8714 21.3033C36.8714 21.3033 24.8566 34.9577 21.8481 39.5092C18.8444 44.0656 20.8469 47.7948 19.6667 49.4345C18.4816 51.0742 13.9302 51.4369 8.74021 51.0742C3.55026 50.7114 0 54.8082 0 54.8082H22.1238V54.8856C22.1238 55.7272 22.7526 56.4334 23.5845 56.535L29.5871 57.2653H33.5146C34.0805 57.2653 34.6078 56.9848 34.9221 56.5205L36.3297 54.4406L42.25 54.0779L43.2802 56.3367C43.5366 56.9026 44.1025 57.2653 44.7265 57.2653H49.989C49.989 57.2653 51.5368 56.535 54.0858 56.4479C56.6348 56.356 55.1789 54.2617 54.2696 53.7151C53.3554 53.1685 53.4473 52.8058 52.9927 50.8033C52.538 48.796 53.723 38.7837 53.723 38.7837C53.723 38.7837 56.451 29.3131 57.4523 26.0386C58.4583 22.7592 54.8162 20.3891 55.6336 17.753C56.451 15.1121 55.9964 9.09987 55.9964 9.09987C55.9964 9.09987 56.451 10.7396 58.1826 9.92214C59.9142 9.09987 60.8235 4.36942 59 1.45279H58.9952ZM49.1667 54.6244L47.6189 53.7151L46.2404 50.7936C46.1292 50.5566 46.0711 50.3003 46.0711 50.0391V45.0184C46.0711 44.438 46.4097 43.9108 46.9369 43.6641L48.6201 42.8805L49.1667 48.8879V54.6244Z" fill="#003594"/>
</svg>
