<svg width="56" height="52" viewBox="0 0 56 52" fill="none" xmlns="http://www.w3.org/2000/svg">
<path d="M53.2371 49.2655C52.4221 49.0188 52.0204 48.6974 50.884 47.1535C49.7476 45.6154 49.6673 41.3225 49.6673 41.3225C49.6673 41.3225 48.2095 36.381 50.4823 31.5198C52.7493 26.6587 52.2614 25.1149 50.884 22.8479C49.5066 20.5809 51.125 15.5591 51.2915 12.3164C56.8815 11.7482 55.9403 7.66761 55.9403 7.66761C55.9403 7.66761 53.3978 7.61596 53.3978 7.69631C56.6691 4.19538 54.7752 1.45776 54.7752 1.45776C54.7752 1.45776 54.1267 0.728881 51.94 1.37741C49.7476 2.02595 48.6974 2.02595 45.8622 0C37.5977 0.241048 35.2446 6.56568 34.114 10.0494C32.9776 13.5331 36.5417 14.0152 36.3006 15.3926C36.0596 16.77 33.5458 19.852 28.6043 22.2797C23.6628 24.7131 21.3901 33.6261 18.3139 36.381C15.2319 39.1358 19.6109 48.3702 10.6176 48.3702C1.6242 48.3702 0 51.7736 0 51.7736C0 51.7736 55.3434 52.1007 55.9058 51.7736C56.2272 50.3158 54.0463 49.5066 53.2371 49.2655ZM42.9467 46.8321C41.1618 45.9024 42.9467 42.0915 42.9467 42.0915L44.7258 46.8321C44.7258 46.8321 44.7258 47.7619 42.9467 46.8321Z" fill="#003594"/>
</svg>
