<svg width="84" height="66" viewBox="0 0 84 66" fill="none" xmlns="http://www.w3.org/2000/svg">
<path d="M7.58923 52.9062C7.58923 52.9062 8.09769 56.7175 7.58923 58.1574C7.22025 59.1968 7.50373 62.5446 7.68822 64.3174C7.75572 64.9564 8.29568 65.4424 8.93913 65.4424H11.9944L13.3488 64.3399C13.3488 64.3399 14.5367 64.6774 15.1262 64.2544C15.7157 63.8315 16.2286 62.0541 13.6008 61.4601C10.973 60.8662 17.3265 52.1413 17.3265 52.1413C17.3265 52.1413 28.6747 42.3995 31.3026 42.5705C33.9304 42.7415 37.9081 44.7708 40.6214 44.5188C43.3347 44.2669 54.3409 44.6898 52.82 49.347C51.2991 54.0042 50.1427 54.2607 52.964 57.055C53.243 59.2553 52.3971 63.494 54.9394 63.8315C57.4817 64.169 59.0881 63.8315 59.0881 63.8315C59.0881 63.8315 59.511 60.5287 57.1397 60.5287C54.7684 60.5287 57.9002 56.632 57.9002 56.632C57.9002 56.632 57.7292 59.1743 58.7461 59.6828C59.763 60.1912 59.763 62.4771 59.763 62.4771L63.1513 65.4424H67.048C67.048 65.4424 67.3 62.3916 64.3392 61.8021C61.3784 61.2127 63.5788 54.0087 63.5788 54.0087C63.5788 54.0087 62.7328 47.0657 68.4069 43.5064C74.081 39.9472 76.2859 33.1752 76.2859 24.6168C76.1284 21.728 76.1644 19.1676 76.2184 17.6378C76.2544 16.6208 76.0834 15.6084 75.7189 14.6545L75.6244 14.398C75.4534 13.9525 75.5704 13.4485 75.9214 13.1246C76.6188 12.4901 77.8832 11.5137 79.3366 11.2347C81.294 10.8567 83.0129 9.38084 82.7519 7.72046C82.6934 7.35598 82.3514 7.104 81.987 7.14L79.2962 7.38298C79.2962 7.38298 83.8138 4.54368 82.8914 0.727951C82.7834 0.277983 82.3739 -0.0369951 81.9105 0.00350207C80.925 0.088996 79.0667 0.399474 77.0508 1.4974C77.0508 1.4974 74.8505 1.4974 73.577 0.30948C73.577 0.30948 66.9715 -1.04492 64.4292 4.12071C62.9758 7.0725 60.942 11.9682 59.7225 14.9739C59.0431 16.6478 57.5897 17.8807 55.8258 18.2812C54.0619 18.6817 51.7626 19.1496 50.1157 19.2801C46.9839 19.5321 45.3371 21.143 45.3371 21.143C45.3371 21.143 28.1798 20.2116 22.6722 22.1599C17.1646 24.1083 11.5759 26.0567 9.62758 33.8501C7.67922 41.6436 4.11998 46.3862 1.0737 48.1636C-0.537189 50.0265 0.142259 53.2437 0.142259 53.2437C0.142259 53.2437 2.59908 54.9356 5.73086 53.1582C8.10219 52.0558 7.59373 52.9062 7.59373 52.9062H7.58923Z" fill="#003594"/>
</svg>
