<svg width="121" height="65" viewBox="0 0 121 65" fill="none" xmlns="http://www.w3.org/2000/svg">
<path d="M119.419 7.33375C117.514 6.88374 114.574 6.54373 112.659 5.04368C112.414 4.84867 112.269 4.56866 112.209 4.26365C111.659 1.59356 103.783 -2.06156 97.4133 1.43856C91.6731 6.42372 83.5778 13.579 73.9774 13.859C64.3771 14.144 47.6216 13.2039 37.9313 15.929C25.9759 15.554 22.0207 14.519 22.0207 14.519C22.0207 14.519 19.8557 13.674 18.4456 11.3189C17.0356 8.96881 12.3304 2.00357 2.6351 3.31862C2.54009 3.41362 1.31505 4.54366 1.31505 4.54366V6.23872L0 7.92877L0.940034 8.8388C0.940034 8.8388 0.940032 10.6589 1.22004 11.8839C1.50505 13.1089 2.8201 18.5691 2.8201 18.5691L2.07008 20.3542L3.10511 20.9192V22.3292L2.44509 23.5543L3.10511 24.2143V24.8743L3.29012 26.0044L4.14014 26.3794L3.76512 27.4144L5.17518 27.9794L4.51515 28.4494L5.08017 30.0495C5.08017 30.0495 6.77523 31.2745 9.50532 29.5295C12.2354 27.7894 5.93021 32.5896 5.93021 32.5896C5.93021 32.5896 7.90527 32.8746 9.0353 32.5896C9.0353 32.5896 9.78532 35.3197 12.0454 34.9447C14.3055 34.5697 17.5006 34.2846 20.3257 29.5395C20.2057 29.8795 17.0356 38.6448 12.3304 40.2148L15.0555 40.6849L15.5305 44.17L11.8554 46.8051L8.28027 55.1803L8.84529 57.0604C8.84529 57.0604 7.53025 58.6605 8.47028 59.9805C8.37528 60.9205 8.09027 63.0856 9.69032 63.0856C11.2904 63.0856 12.3304 63.3706 13.0804 59.3205C13.8355 55.2753 17.2206 52.3552 17.2206 52.3552L22.0207 48.7801L30.306 47.1801L36.4212 42.0949C36.4212 42.0949 39.3413 42.9449 38.2113 45.86C37.0812 48.7801 35.4812 50.0052 35.4812 50.0052L37.0812 50.0952L35.0112 52.2602C35.0112 52.2602 39.5313 51.2252 40.2814 50.1902C41.0364 49.1551 40.2813 53.3903 36.4212 53.2953C36.4212 53.2953 38.6813 56.6854 43.1064 55.1803C43.1064 55.1803 44.7065 57.1554 44.8015 58.2854C44.8765 59.2055 49.0866 63.0106 50.6367 64.3806C50.9967 64.7007 51.4617 64.8757 51.9467 64.8757H59.577L61.272 62.1456L70.6673 55.9954C71.2924 55.5854 71.7874 55.0103 72.0974 54.3353L76.0425 45.77C76.0425 45.77 77.6426 48.2151 80.3727 48.9701L83.1028 49.7202C83.1028 49.7202 80.9377 45.39 84.2328 42.6599C85.8328 41.6249 88.4679 47.8401 87.7129 50.0052C87.7129 50.0052 90.068 51.3202 91.198 53.7703C94.4881 53.8603 99.8533 59.9805 99.8533 59.9805C99.8533 59.9805 100.233 61.8606 101.173 61.9556C102.113 62.0506 104.088 64.2156 104.088 64.2156L109.924 64.2906C110.699 64.3006 111.434 63.9556 111.919 63.3506L114.254 60.4455C114.254 60.4455 114.349 57.9054 109.739 57.9054C106.444 57.6204 104.278 53.3853 104.278 53.3853L97.1232 40.0198L97.5983 37.6698L98.3483 38.8898L98.8183 37.1997L99.1033 37.9498C99.1033 37.9498 98.2533 27.8794 101.833 23.7393C101.833 23.7393 104.183 20.2542 104.843 17.3391L112.564 17.8091C112.564 17.8091 116.339 18.8341 116.799 15.549L112.774 13.819C112.774 13.819 121.269 12.7689 120.059 7.95377C119.979 7.64376 119.729 7.39875 119.419 7.32875V7.33375ZM60.097 56.0804C58.747 56.2654 57.4219 60.0105 57.4219 60.0105C57.4219 60.0105 53.5868 57.9104 51.7567 55.1653C49.4717 50.9652 53.1268 47.0351 53.1268 47.0351C55.7769 46.8501 60.097 51.8802 60.097 51.8802L61.262 54.6203C61.262 54.6203 61.4421 55.9004 60.097 56.0804Z" fill="#003594"/>
</svg>
