<svg width="88" height="89" viewBox="0 0 88 89" fill="none" xmlns="http://www.w3.org/2000/svg">
    <path d="M27.736 14.318a23.802 23.802 0 0 1 2.244-1.896c.592-.425 1.798-.99 2.734-1.272 1.194-.375 1.913-.446 2.55-.301.478.148 1.233.623 1.654 1.058.537.607.976 1.462 1.534 3.02.457 1.275.903 3.113 1.059 4.362.138 1.203.309 3.459.354 5.068.068 1.6-.073 3.729-.248 4.724-.198 1.003-.74 2.609-1.192 3.57-.468.993-1.38 2.306-2.099 3.043-1.082 1.134-1.495 1.388-3.035 1.913-1.107.397-2.155.586-2.781.544-.571-.035-1.63-.321-2.358-.647-.743-.293-1.829-1.023-2.427-1.58-.584-.59-1.456-1.69-1.926-2.48a14.668 14.668 0 0 1-1.325-3.255c-.253-1.002-.497-2.352-.52-3.01-.047-.65.005-1.84.113-2.651.092-.78.608-2.456 1.15-3.689.565-1.241 1.514-2.966 2.168-3.813.644-.87 1.693-2.099 2.351-2.708zM48.523 13.29c.312-.538.834-1.232 1.152-1.532.318-.3.856-.653 1.185-.771.33-.118 1.08-.174 1.684-.124.602.05 1.815.469 2.728.94.986.526 2.276 1.53 3.362 2.632.98.954 2.167 2.34 2.658 3.043.491.703 1.37 2.413 1.956 3.827.913 2.177 1.086 2.808 1.17 4.376.038.998-.058 2.658-.256 3.661-.199 1.004-.787 2.626-1.302 3.637-.523.986-1.435 2.299-2.032 2.859-.588.583-1.656 1.312-2.337 1.636a7.712 7.712 0 0 1-2.818.664c-1.226.066-1.918-.085-3.198-.692-1.057-.5-1.999-1.202-2.706-1.987-.942-1.074-1.208-1.592-2.172-4.283-.99-2.762-1.097-3.283-1.117-5.194.005-1.174.134-3.484.3-5.169.167-1.685.49-3.825.753-4.798.239-.965.678-2.187.99-2.725zM9.627 36.018c.541-1.233 1.34-2.638 1.804-3.124a5.25 5.25 0 0 1 2.09-1.361c1.083-.389 1.352-.379 2.503.088.696.31 1.822 1.079 2.454 1.731.656.644 1.724 1.993 2.404 3.001.795 1.18 1.667 2.946 2.497 4.966 1.042 2.61 1.282 3.43 1.386 4.831.069.934-.055 2.444-.287 3.353-.224.932-.742 2.157-1.148 2.729-.43.58-1.15 1.317-1.617 1.644-.467.328-1.108.69-1.438.809-.33.118-1.213.248-1.94.295-.956.077-1.879-.125-3.006-.6-.911-.393-2.22-1.23-2.915-1.833-.671-.612-1.663-1.748-2.156-2.53-.517-.774-1.122-1.943-1.35-2.58-.237-.661-.516-2.106-.629-3.238-.09-1.14-.044-2.94.106-4.007.15-1.066.724-2.95 1.242-4.174zM33.708 44.703c.47-.54 1.378-1.346 2.017-1.788.639-.442 2.016-1.122 3.052-1.493 1.028-.395 2.571-.761 3.425-.828.845-.09 2.183-.063 2.946.063.786.118 2.358.647 3.51 1.193 1.408.668 2.517 1.39 3.36 2.259.706.706 1.61 1.82 2.005 2.478.372.666 1.064 1.857 1.533 2.647.446.8 1.297 1.987 1.882 2.656.585.67 2.153 2.079 3.492 3.144 1.475 1.15 2.94 2.57 3.66 3.537.954 1.256 1.434 2.15 2.051 3.873.55 1.534.798 2.67.82 3.622.01.769-.166 2.057-.394 2.832-.195.789-.87 2.096-1.46 2.894-.6.774-1.605 1.827-2.236 2.292-.716.523-2.008 1.146-3.397 1.644-1.343.481-2.91.856-3.912.95-.933.067-2.62.032-3.746-.07-1.135-.127-3.075-.497-4.286-.836-1.21-.338-2.826-.692-3.595-.762-.755-.103-1.926-.11-2.598-.055-.687.086-2.458.481-3.946.855-1.502.405-3.441.78-4.294.846-.845.09-2.43.044-3.477-.06-1.055-.128-2.75-.48-3.732-.847-.997-.335-2.407-1.082-3.155-1.613-.725-.54-1.72-1.461-2.184-2.014-.594-.693-1.067-1.642-1.524-2.917-.45-1.33-.632-2.358-.623-3.373.028-.81.319-2.298.675-3.305.334-.999 1.137-2.539 1.75-3.424.645-.87 2.283-2.603 3.671-3.846 1.397-1.22 3.162-2.971 3.924-3.884.771-.889 1.984-2.549 2.67-3.674.687-1.125 1.637-2.478 2.116-2.995zM66.164 35.524c.699-.943 1.764-2.124 2.377-2.637.614-.512 1.542-1.111 2.06-1.297a3.562 3.562 0 0 1 1.953-.114c.645.169 1.464.674 2.233 1.411 1.165 1.1 1.265 1.305 2.271 4.114.872 2.432 1.073 3.292 1.127 4.924a32.066 32.066 0 0 1-.073 3.356c-.102.756-.612 2.297-1.149 3.395-.604 1.282-1.423 2.481-2.19 3.235-.688.673-1.879 1.58-2.667 2.048-1.04.586-1.817.864-2.826 1.013-.758.112-1.786.134-2.248.033-.461-.101-1.3-.44-1.83-.73-.513-.322-1.206-.846-1.506-1.164-.277-.328-.776-1.054-1.082-1.61-.306-.557-.673-1.73-.836-2.631-.164-.9-.183-2.438-.087-3.432.127-1.35.557-2.597 1.69-5 .844-1.795 2.076-3.995 2.783-4.914z" fill="#003594"/>
</svg>
